<?xml version="1.0" encoding="iso-8859-1"?>
<!-- Uploaded to: SVG Repo, www.svgrepo.com, Generator: SVG Repo Mixer Tools -->
<svg fill="#ffffff" version="1.1" id="Layer_1" xmlns="http://www.w3.org/2000/svg" xmlns:xlink="http://www.w3.org/1999/xlink" 
	 viewBox="0 0 512 512" xml:space="preserve">
<g>
	<g>
		<path d="M446.021,0H47.505v512h398.516c10.186,0,18.474-8.288,18.474-18.474V18.474C464.495,8.288,456.207,0,446.021,0z
			 M100.289,496.165H63.34V15.835h36.948V496.165z M448.66,493.526c0,1.43-1.209,2.639-2.639,2.639H163.629v-160.99h-15.835v160.99
			h-31.67V15.835h329.897c1.43,0,2.639,1.209,2.639,2.639V493.526z"/>
	</g>
</g>
<g>
	<g>
		<rect x="372.124" y="401.155" width="52.784" height="15.835"/>
	</g>
</g>
<g>
	<g>
		<rect x="387.959" y="52.784" width="36.948" height="15.835"/>
	</g>
</g>
<g>
	<g>
		<rect x="335.175" y="52.784" width="36.948" height="15.835"/>
	</g>
</g>
<g>
	<g>
		<rect x="319.34" y="443.381" width="105.567" height="15.835"/>
	</g>
</g>
<g>
	<g>
		<path d="M334.854,197.091l-37.261,37.261l-41.059-41.059l37.261-37.26l-70.826-70.951l-51.8,51.678l-0.592,1.784
			c-0.67,2.022-15.578,50.351,57.968,123.789c51.481,51.557,90.619,59.652,110.122,59.651c8.321-0.001,13.07-1.475,13.675-1.675
			l1.784-0.592l51.678-51.8L334.854,197.091z M345.834,305.607c-3.349,0.591-12.129,1.473-25.307-1.907
			c-17.353-4.45-45.454-17.179-80.786-52.564c-34.603-34.552-47.456-62.154-52.143-79.225c-3.862-14.058-2.928-23.387-2.318-26.863
			l37.665-37.577l48.465,48.55l-37.27,37.27l63.452,63.452l37.27-37.27l48.55,48.465L345.834,305.607z"/>
	</g>
</g>
</svg>